<svg width="23" height="23" viewBox="0 0 23 23" fill="none" xmlns="http://www.w3.org/2000/svg">
<g id="Frame">
<path id="Vector" d="M8.55396 4.38895L10.871 2.07197C11.2181 1.72483 11.7809 1.72483 12.128 2.07197L14.445 4.38895H17.7217C18.2126 4.38895 18.6106 4.78692 18.6106 5.27783V8.55454L20.9276 10.8715C21.2747 11.2187 21.2747 11.7815 20.9276 12.1286L18.6106 14.4456V17.7223C18.6106 18.2132 18.2126 18.6112 17.7217 18.6112H14.445L12.128 20.9282C11.7809 21.2753 11.2181 21.2753 10.871 20.9282L8.55396 18.6112H5.27726C4.78634 18.6112 4.38837 18.2132 4.38837 17.7223V14.4456L2.07139 12.1286C1.72425 11.7815 1.72425 11.2187 2.07139 10.8715L4.38837 8.55454V5.27783C4.38837 4.78692 4.78634 4.38895 5.27726 4.38895H8.55396ZM6.16614 6.16672V9.29092L3.95701 11.5001L6.16614 13.7092V16.8334H9.29034L11.4995 19.0426L13.7087 16.8334H16.8328V13.7092L19.042 11.5001L16.8328 9.29092V6.16672H13.7087L11.4995 3.95759L9.29034 6.16672H6.16614ZM11.4995 15.0556C9.5358 15.0556 7.94392 13.4637 7.94392 11.5001C7.94392 9.53638 9.5358 7.9445 11.4995 7.9445C13.4631 7.9445 15.055 9.53638 15.055 11.5001C15.055 13.4637 13.4631 15.0556 11.4995 15.0556ZM11.4995 13.2779C12.4814 13.2779 13.2773 12.4819 13.2773 11.5001C13.2773 10.5182 12.4814 9.7223 11.4995 9.7223C10.5176 9.7223 9.72172 10.5182 9.72172 11.5001C9.72172 12.4819 10.5176 13.2779 11.4995 13.2779Z" fill="white"/>
</g>
</svg>
