<svg width="22" height="23" viewBox="0 0 22 23" fill="none" xmlns="http://www.w3.org/2000/svg">
<g id="lanterns 1" clip-path="url(#clip0_114_141)">
<g id="Group">
<path id="Vector" d="M10.7978 1.07578L10.6774 1.17891L10.6646 1.99961L10.6517 2.82031L10.4669 2.90195C10.0114 3.09961 9.70205 3.56367 9.69346 4.04062L9.68916 4.31133L9.3583 4.47031C8.46025 4.9043 7.74697 5.7207 7.42471 6.67461C7.35596 6.87656 7.2915 7.15586 7.27432 7.29336L7.24854 7.54688H10.9954H14.738V7.43516C14.738 7.06133 14.4458 6.24063 14.1536 5.80234C13.7798 5.23945 13.1267 4.67656 12.5638 4.43164L12.3103 4.32422L12.306 4.04922C12.2931 3.56797 11.988 3.09531 11.5626 2.91055L11.3521 2.82031L11.3349 1.99961L11.322 1.17891L11.2017 1.07578C11.0513 0.946875 10.9481 0.946875 10.7978 1.07578Z" fill="white"/>
<path id="Vector_2" d="M6.56984 8.29023C6.46671 8.34609 6.32492 8.475 6.25187 8.57383C6.13585 8.73711 6.12296 8.79297 6.12296 9.07227C6.12296 9.35156 6.13585 9.40742 6.25187 9.5707C6.32921 9.67812 6.46671 9.79844 6.58702 9.85859L6.78898 9.96602V13.0684V16.175L6.68156 16.2008C6.53117 16.2395 6.23038 16.5187 6.15734 16.6863C6.03702 16.9785 6.11437 17.4082 6.32921 17.6359C6.38077 17.6918 6.49679 17.7777 6.58273 17.8207C6.73742 17.898 6.9007 17.9023 10.9999 17.9023C15.0991 17.9023 15.2624 17.898 15.4171 17.8207C15.9843 17.5285 16.0659 16.7937 15.5761 16.3641C15.4944 16.2867 15.3741 16.2137 15.3183 16.2008L15.2109 16.175V13.0684V9.96602L15.4128 9.85859C15.5331 9.79844 15.6706 9.67812 15.748 9.5707C15.864 9.40742 15.8769 9.35156 15.8769 9.07227C15.8769 8.79297 15.864 8.73711 15.748 8.57383C15.6792 8.475 15.5331 8.34609 15.43 8.29023L15.2409 8.19141H10.9999H6.7589L6.56984 8.29023ZM9.06632 13.0254V16.0977H8.2714H7.47648V13.0254V9.95312H8.2714H9.06632V13.0254ZM12.246 13.0254V16.0977H10.9999H9.75382V13.0254V9.95312H10.9999H12.246V13.0254ZM14.5234 13.0254V16.0977H13.7284H12.9335V13.0254V9.95312H13.7284H14.5234V13.0254Z" fill="white"/>
<path id="Vector_3" d="M7.27861 18.8047C7.41611 20.0164 8.36143 21.2238 9.56025 21.7223C10.0759 21.9371 10.3981 21.9973 11.0212 21.9973C11.4509 21.993 11.6614 21.9715 11.9235 21.9027C13.0321 21.6063 13.9259 20.8629 14.42 19.823C14.579 19.4879 14.738 18.9164 14.738 18.6887V18.5469H10.9954H7.24854L7.27861 18.8047Z" fill="white"/>
</g>
</g>
<defs>
<clipPath id="clip0_114_141">
<rect width="22" height="22" fill="white" transform="translate(0 0.5)"/>
</clipPath>
</defs>
</svg>
