<svg width="32" height="32" viewBox="0 0 32 32" fill="none" xmlns="http://www.w3.org/2000/svg">
<g id="mosque-_1_ 3">
<g id="Group">
<path id="Vector" d="M14.5625 1.09375C11.5125 1.475 8.76876 2.95625 6.82501 5.28125C5.01251 7.44375 4.00626 10.1938 4.00001 12.9875C3.99376 16.8438 6.08751 21.2437 10.0375 25.6625C11.9125 27.7625 15.5313 31 16 31C16.3563 31 18.7188 28.9875 20.6063 27.0812C25.875 21.7625 28.4188 16.4625 27.9375 11.8125C27.5 7.6125 24.9813 4.025 21.1813 2.1875C19.1188 1.19375 16.8188 0.8125 14.5625 1.09375ZM17.675 4.15625C19.4625 4.50625 21.0438 5.35 22.3438 6.65625C23.6563 7.9625 24.4875 9.525 24.8563 11.3562C25.0063 12.1125 25.0063 13.8125 24.8563 14.5938C24.1313 18.325 21.3 21.1562 17.5938 21.85C16.7563 22.0062 15.1375 22.0125 14.3563 21.8562C12.5375 21.4937 10.9563 20.65 9.65626 19.3438C8.34376 18.0375 7.51251 16.475 7.14376 14.6437C6.99376 13.8813 6.99376 12.1187 7.14376 11.3562C7.75001 8.31875 9.77501 5.8375 12.5875 4.68125C13.2313 4.41875 14.1688 4.1625 14.8438 4.06875C15.4563 3.98125 17.0563 4.03125 17.675 4.15625Z" fill="url(#paint0_linear_15_2094)"/>
<path id="Vector_2" d="M15.4436 5.6125C15.3623 5.625 15.1498 5.78125 14.9748 5.95625C14.5248 6.40625 14.3998 6.875 14.5748 7.45C14.6623 7.75 15.0498 8.20625 15.3123 8.3125C15.4748 8.38125 15.4998 8.41875 15.4998 8.6375C15.4998 9.2125 14.9436 9.85 13.6998 10.7C12.7123 11.375 12.1686 11.8937 11.8936 12.4188C11.4311 13.2812 11.3811 14.3562 11.7561 15.2312L11.8686 15.5H15.9998H20.1311L20.2436 15.2312C20.6186 14.3562 20.5686 13.2812 20.1061 12.4188C19.8248 11.8812 19.2811 11.3688 18.3061 10.7C17.0623 9.85625 16.4998 9.2125 16.4998 8.6375C16.4998 8.41875 16.5248 8.38125 16.6873 8.3125C16.9248 8.2125 17.3498 7.74375 17.3873 7.5375C17.4248 7.34375 17.2936 7.03125 17.1561 6.975C16.9561 6.9 16.6873 6.9375 16.5873 7.05625C16.2436 7.45625 16.1873 7.5 15.9998 7.5C15.7436 7.5 15.4998 7.25625 15.4998 7C15.4998 6.8125 15.5436 6.75625 15.9436 6.4125C16.0748 6.30625 16.0998 6 15.9998 5.8125C15.9311 5.68125 15.6561 5.58125 15.4436 5.6125Z" fill="url(#paint1_linear_15_2094)"/>
<path id="Vector_3" d="M12.0001 16.5812C11.6938 16.6812 11.1688 17.2188 11.0751 17.5375C10.9563 17.9375 10.9813 18.175 11.1563 18.3438L11.3063 18.5H16.0001H20.6938L20.8438 18.3438C21.1251 18.0687 21.0126 17.475 20.5813 17C20.1188 16.4813 20.2688 16.5 15.9751 16.5063C13.4251 16.5125 12.1501 16.5375 12.0001 16.5812Z" fill="url(#paint2_linear_15_2094)"/>
</g>
</g>
<defs>
<linearGradient id="paint0_linear_15_2094" x1="27.9951" y1="31" x2="-1.26906" y2="7.59057" gradientUnits="userSpaceOnUse">
<stop stop-color="#D9D9D9"/>
<stop offset="0.0001" stop-color="#185A3C"/>
<stop offset="1" stop-color="#2BA16B"/>
</linearGradient>
<linearGradient id="paint1_linear_15_2094" x1="20.4928" y1="15.5" x2="10.6452" y2="6.55542" gradientUnits="userSpaceOnUse">
<stop stop-color="#D9D9D9"/>
<stop offset="0.0001" stop-color="#185A3C"/>
<stop offset="1" stop-color="#2BA16B"/>
</linearGradient>
<linearGradient id="paint2_linear_15_2094" x1="20.9981" y1="18.5" x2="20.2319" y2="14.6617" gradientUnits="userSpaceOnUse">
<stop stop-color="#D9D9D9"/>
<stop offset="0.0001" stop-color="#185A3C"/>
<stop offset="1" stop-color="#2BA16B"/>
</linearGradient>
</defs>
</svg>
