<svg width="22" height="23" viewBox="0 0 22 23" fill="none" xmlns="http://www.w3.org/2000/svg">
<g id="mosque-_1_ 1">
<g id="Group">
<path id="Vector" d="M10.2087 1.5625C8.17533 1.81667 6.34617 2.80416 5.05033 4.35417C3.842 5.79583 3.17117 7.62917 3.167 9.49167C3.16283 12.0625 4.55867 14.9958 7.192 17.9417C8.442 19.3417 10.8545 21.5 11.167 21.5C11.4045 21.5 12.9795 20.1583 14.2378 18.8875C17.7503 15.3417 19.4462 11.8083 19.1253 8.70833C18.8337 5.90833 17.1545 3.51667 14.6212 2.29167C13.2462 1.62917 11.7128 1.375 10.2087 1.5625ZM12.2837 3.60417C13.4753 3.8375 14.5295 4.4 15.3962 5.27083C16.2712 6.14167 16.8253 7.18333 17.0712 8.40417C17.1712 8.90833 17.1712 10.0417 17.0712 10.5625C16.5878 13.05 14.7003 14.9375 12.2295 15.4C11.6712 15.5042 10.592 15.5083 10.0712 15.4042C8.85867 15.1625 7.8045 14.6 6.93783 13.7292C6.06283 12.8583 5.50867 11.8167 5.26283 10.5958C5.16283 10.0875 5.16283 8.9125 5.26283 8.40417C5.667 6.37917 7.017 4.725 8.892 3.95417C9.32117 3.77917 9.94617 3.60833 10.3962 3.54583C10.8045 3.4875 11.8712 3.52083 12.2837 3.60417Z" fill="white"/>
<path id="Vector_2" d="M10.7964 4.57499C10.7422 4.58332 10.6005 4.68749 10.4839 4.80416C10.1839 5.10416 10.1005 5.41666 10.2172 5.79999C10.2755 5.99999 10.5339 6.30416 10.7089 6.37499C10.8172 6.42082 10.8339 6.44582 10.8339 6.59166C10.8339 6.97499 10.463 7.39999 9.63387 7.96666C8.97554 8.41666 8.61304 8.76249 8.42971 9.11249C8.12137 9.68749 8.08804 10.4042 8.33804 10.9875L8.41304 11.1667H11.1672H13.9214L13.9964 10.9875C14.2464 10.4042 14.213 9.68749 13.9047 9.11249C13.7172 8.75416 13.3547 8.41249 12.7047 7.96666C11.8755 7.40416 11.5005 6.97499 11.5005 6.59166C11.5005 6.44582 11.5172 6.42082 11.6255 6.37499C11.7839 6.30832 12.0672 5.99582 12.0922 5.85832C12.1172 5.72916 12.0297 5.52082 11.938 5.48332C11.8047 5.43332 11.6255 5.45832 11.5589 5.53749C11.3297 5.80416 11.2922 5.83332 11.1672 5.83332C10.9964 5.83332 10.8339 5.67082 10.8339 5.49999C10.8339 5.37499 10.863 5.33749 11.1297 5.10832C11.2172 5.03749 11.2339 4.83332 11.1672 4.70832C11.1214 4.62082 10.938 4.55416 10.7964 4.57499Z" fill="white"/>
<path id="Vector_3" d="M8.50039 11.8875C8.29622 11.9542 7.94622 12.3125 7.88372 12.525C7.80455 12.7917 7.82122 12.95 7.93789 13.0625L8.03789 13.1667H11.1671H14.2962L14.3962 13.0625C14.5837 12.8792 14.5087 12.4833 14.2212 12.1667C13.9129 11.8208 14.0129 11.8333 11.1504 11.8375C9.45039 11.8417 8.60039 11.8583 8.50039 11.8875Z" fill="white"/>
</g>
</g>
</svg>
