<svg width="22" height="23" viewBox="0 0 22 23" fill="none" xmlns="http://www.w3.org/2000/svg">
<g id="ramadan-_1_ 1" clip-path="url(#clip0_114_149)">
<g id="Group">
<path id="Vector" d="M9.83791 0.87916C8.95458 0.958326 7.83791 1.22499 6.97958 1.56249C2.76708 3.20833 0.0379139 7.31666 0.179581 11.7917C0.233747 13.4125 0.583747 14.8167 1.29625 16.2458C2.71291 19.1 5.37541 21.2083 8.43375 21.8958C9.57958 22.15 9.28791 22.1417 15.0921 22.1542C18.9879 22.1667 20.4629 22.1583 20.5921 22.1208C20.9254 22.0333 21.2087 21.65 21.2087 21.2875C21.2087 20.875 20.8712 20.5042 20.4212 20.4333L20.2504 20.4083L20.4379 20.2C20.8796 19.7083 21.2129 19.0667 21.3837 18.3917C21.4587 18.0917 21.4754 17.9083 21.4754 17.4375C21.4712 16.7167 21.3921 16.3875 21.0587 15.7167L20.8254 15.25L20.9546 14.8625C21.8462 12.1625 21.6421 9.30416 20.3712 6.75416C18.9004 3.79583 16.1712 1.70416 12.9212 1.04166C11.9962 0.85416 10.8212 0.79166 9.83791 0.87916ZM12.2296 2.58333C14.4087 2.93749 16.3421 4.02499 17.7171 5.66666C18.8046 6.96249 19.4671 8.40833 19.7587 10.125C19.8629 10.7417 19.8837 12.0917 19.7962 12.6458C19.7129 13.1792 19.6171 13.65 19.5796 13.7125C19.5546 13.7542 19.4754 13.7 19.2629 13.4958C18.9129 13.1625 18.4962 12.8125 17.2921 11.8458C16.7754 11.4333 16.2796 11.025 16.1879 10.9417C16.0296 10.8 16.0254 10.7958 16.1254 10.7917C16.3629 10.7875 16.8337 10.6583 17.1046 10.525C17.5629 10.3 17.9921 9.82916 18.1796 9.34166C18.2462 9.17083 18.2462 9.16249 18.1671 9.08333C18.0754 8.99166 18.0754 8.98749 17.7796 9.19999C16.9046 9.82499 15.6921 9.53749 15.2129 8.59583C14.9087 7.99166 14.9671 7.28333 15.3587 6.77083C15.7004 6.32083 15.3879 6.22499 14.8129 6.60416C13.8421 7.24999 13.5171 8.50416 14.0504 9.55416C14.2879 10.025 14.8379 10.5 15.3171 10.6542C15.4421 10.6917 15.5421 10.7333 15.5421 10.75C15.5421 10.7792 14.8879 11.325 14.0421 12C12.6379 13.1208 11.9254 13.7625 11.3712 14.4042C10.7004 15.1833 10.3337 15.8292 10.1379 16.5792C10.0462 16.9375 10.0379 17.0375 10.0546 17.5625C10.0796 18.2708 10.1671 18.6292 10.4671 19.2458C10.6629 19.65 10.6754 19.7083 10.6837 20.0125C10.6879 20.2792 10.7004 20.3542 10.7587 20.3917C10.8629 20.4542 10.9754 20.375 10.9921 20.2292L11.0087 20.1167L11.1504 20.2542L11.2921 20.3917L11.0546 20.4542C10.2671 20.65 8.43791 20.325 7.20458 19.7667C5.21291 18.8625 3.71291 17.4208 2.73791 15.475C2.32125 14.6458 2.07958 13.8833 1.90875 12.875C1.78375 12.1333 1.78375 10.8667 1.90875 10.125C2.02125 9.47083 2.16708 8.89583 2.35875 8.37916C3.48375 5.36249 6.12958 3.15833 9.30041 2.59999C10.2212 2.44166 11.3296 2.43333 12.2296 2.58333ZM18.3421 13.7458C19.8337 15.0292 20.5837 16.1417 20.6879 17.1958C20.7171 17.4708 20.7129 17.4917 20.6254 17.5542C20.4837 17.6542 20.3754 17.5792 20.3754 17.3833C20.3712 16.8917 20.0504 16.1 19.6212 15.5208C19.3796 15.2 18.3087 14.1167 17.9671 13.8542C17.7212 13.6667 17.6546 13.5167 17.7712 13.4292C17.8171 13.4 17.8629 13.375 17.8837 13.375C17.9004 13.375 18.1087 13.5417 18.3421 13.7458ZM20.5796 20.825C20.9671 21.0333 20.9546 21.6083 20.5629 21.775C20.4421 21.825 19.6837 21.8333 15.7379 21.8333H11.0546L10.9129 21.7375C10.6587 21.5667 10.5921 21.2667 10.7504 21.0083C10.9171 20.7417 10.6462 20.7542 15.7712 20.75C20.2129 20.75 20.4462 20.7542 20.5796 20.825Z" fill="white"/>
<path id="Vector_2" d="M10.7169 2.63333C10.6669 2.68333 10.6461 3.19167 10.6919 3.30833C10.7086 3.34583 10.7669 3.375 10.8336 3.375C10.9794 3.375 11.0003 3.32083 11.0003 2.9625C11.0003 2.67917 10.9586 2.58333 10.8336 2.58333C10.7961 2.58333 10.7461 2.60417 10.7169 2.63333Z" fill="white"/>
<path id="Vector_3" d="M10.717 4.09167C10.6795 4.12917 10.667 4.92084 10.667 7.40417V10.6667L10.5128 10.7292C10.0878 10.9083 9.88784 11.4 10.0628 11.8208L10.1295 11.975L8.30867 13.7958C6.79201 15.3125 6.49617 15.6292 6.50867 15.7125C6.51701 15.7792 6.55451 15.8167 6.62117 15.825C6.70451 15.8375 7.02117 15.5417 8.53784 14.025L10.3587 12.2042L10.5128 12.2708C10.9253 12.4417 11.4003 12.2583 11.5878 11.8542C11.7878 11.4208 11.592 10.9125 11.1545 10.7292L11.0003 10.6667V7.40417C11.0003 4.02084 11.0003 4.04167 10.8337 4.04167C10.7962 4.04167 10.7462 4.06251 10.717 4.09167Z" fill="white"/>
<path id="Vector_4" d="M4.54212 5.20832C4.43379 5.31666 4.46296 5.37499 4.74629 5.63749C4.92129 5.80416 4.97129 5.82916 5.03796 5.79582C5.18796 5.71249 5.17546 5.62916 4.97129 5.41249C4.70879 5.12916 4.65046 5.09999 4.54212 5.20832Z" fill="white"/>
<path id="Vector_5" d="M16.7129 5.39167C16.5337 5.5875 16.5046 5.6375 16.5379 5.70417C16.6212 5.85833 16.7046 5.84167 16.9421 5.61667C17.1212 5.45 17.1671 5.37917 17.1587 5.29583C17.1504 5.21667 17.1171 5.18333 17.0379 5.175C16.9546 5.16667 16.8837 5.2125 16.7129 5.39167Z" fill="white"/>
<path id="Vector_6" d="M1.96699 11.3833C1.94199 11.4083 1.91699 11.4667 1.91699 11.5042C1.91699 11.6333 2.02116 11.6708 2.33783 11.6583C2.56699 11.65 2.64616 11.6292 2.68366 11.5708C2.71699 11.5208 2.71699 11.4792 2.68366 11.425C2.62533 11.3333 2.05033 11.3 1.96699 11.3833Z" fill="white"/>
<path id="Vector_7" d="M19.0127 11.3583C18.9835 11.3708 18.9585 11.4375 18.9585 11.5042C18.9585 11.65 19.0377 11.675 19.4127 11.6583C19.7085 11.6458 19.8127 11.5667 19.7252 11.425C19.6877 11.3708 19.6127 11.3542 19.371 11.3458C19.2002 11.3417 19.0377 11.35 19.0127 11.3583Z" fill="white"/>
<path id="Vector_8" d="M4.72541 17.3833C4.54624 17.55 4.50041 17.6208 4.50874 17.7042C4.51707 17.7833 4.55041 17.8167 4.62957 17.825C4.71291 17.8333 4.78374 17.7875 4.95457 17.6083C5.13374 17.4125 5.16291 17.3625 5.12957 17.2958C5.04624 17.1417 4.96291 17.1583 4.72541 17.3833Z" fill="white"/>
</g>
</g>
<defs>
<clipPath id="clip0_114_149">
<rect width="21.3333" height="21.3333" fill="white" transform="translate(0.166992 0.833328)"/>
</clipPath>
</defs>
</svg>
