<svg width="40" height="40" viewBox="0 0 40 40" fill="none" xmlns="http://www.w3.org/2000/svg">
<g id="Frame">
<path id="Vector" d="M10.5689 23.3334C10.2004 22.2907 9.99984 21.1689 9.99984 20C9.99984 14.4772 14.477 10 19.9998 10C25.5227 10 29.9998 14.4772 29.9998 20C29.9998 25.5229 25.5227 30 19.9998 30V23.3334H10.5689ZM9.99984 33.3334H24.9998V36.6667H9.99984V33.3334ZM1.6665 18.3334H6.6665V21.6667H1.6665V18.3334ZM3.33317 26.6667H16.6665V30H3.33317V26.6667ZM18.3332 1.66669H21.6665V6.66669H18.3332V1.66669ZM5.8577 8.2149L8.21472 5.85789L11.7503 9.39342L9.39324 11.7504L5.8577 8.2149ZM28.2493 30.6067L30.6065 28.2495L34.142 31.7852L31.785 34.1422L28.2493 30.6067ZM31.785 5.85789L34.142 8.2149L30.6065 11.7504L28.2493 9.39342L31.785 5.85789ZM38.3332 18.3334V21.6667H33.3332V18.3334H38.3332Z" fill="#FEC023"/>
</g>
</svg>
