<svg width="24" height="25" viewBox="0 0 24 25" fill="none" xmlns="http://www.w3.org/2000/svg">
<g id="Frame">
<path id="Vector" d="M10 7.72055L6.60282 10.5001H3V14.5001H6.60282L10 17.2796V7.72055ZM5.88889 16.5001H2C1.44772 16.5001 1 16.0524 1 15.5001V9.50007C1 8.94778 1.44772 8.50007 2 8.50007H5.88889L11.1834 4.16821C11.3971 3.99335 11.7121 4.02485 11.887 4.23857C11.9601 4.3279 12 4.43977 12 4.55519V20.445C12 20.7211 11.7761 20.945 11.5 20.945C11.3846 20.945 11.2727 20.9051 11.1834 20.832L5.88889 16.5001ZM20.4142 12.5001L23.9497 16.0356L22.5355 17.4499L19 13.9143L15.4645 17.4499L14.0503 16.0356L17.5858 12.5001L14.0503 8.96453L15.4645 7.55032L19 11.0859L22.5355 7.55032L23.9497 8.96453L20.4142 12.5001Z" fill="#103C28"/>
</g>
</svg>
