<svg width="24" height="25" viewBox="0 0 24 25" fill="none" xmlns="http://www.w3.org/2000/svg">
<g id="Frame">
<path id="Vector" d="M6.60282 10.5001L10 7.72056V17.2796L6.60282 14.5001H3V10.5001H6.60282ZM2 16.5001H5.88889L11.1834 20.8319C11.2727 20.905 11.3846 20.9449 11.5 20.9449C11.7761 20.9449 12 20.7211 12 20.4449V4.55519C12 4.43977 11.9601 4.3279 11.887 4.23857C11.7121 4.02485 11.3971 3.99335 11.1834 4.16821L5.88889 8.50007H2C1.44772 8.50007 1 8.94778 1 9.50007V15.5001C1 16.0524 1.44772 16.5001 2 16.5001ZM23 12.5C23 15.792 21.5539 18.7463 19.2622 20.7622L17.8445 19.3444C19.7758 17.6937 21 15.2398 21 12.5C21 9.76016 19.7758 7.30629 17.8445 5.65557L19.2622 4.23779C21.5539 6.25368 23 9.20795 23 12.5ZM18 12.5C18 10.5883 17.106 8.88548 15.7133 7.78673L14.2842 9.21584C15.3213 9.93855 16 11.14 16 12.5C16 13.86 15.3213 15.0614 14.2842 15.7841L15.7133 17.2132C17.106 16.1145 18 14.4116 18 12.5Z" fill="#103C28"/>
</g>
</svg>
